<svg width="379" height="800" viewBox="0 0 379 800" fill="none" xmlns="http://www.w3.org/2000/svg">
<path opacity="0.5" d="M251 690.511L350.468 702.182L344.293 624.322L251 690.511Z" stroke="white" stroke-miterlimit="10"/>
<path opacity="0.5" d="M208.964 619.897L237.062 596.233L188.306 598.216L208.964 619.897Z" stroke="white" stroke-miterlimit="10"/>
<path opacity="0.5" d="M110.45 818.497L189.164 808.73L85.4258 737.273L110.45 818.497Z" stroke="white" stroke-miterlimit="10"/>
<path opacity="0.5" d="M78.5603 502.231L27.945 472.782L39.0317 439.09L78.5603 502.231Z" stroke="white" stroke-miterlimit="10"/>
<path opacity="0.5" d="M67.8688 54.7814L7.5994 76.6979L-18.2753 -9.09035L67.8688 54.7814Z" stroke="white" stroke-miterlimit="10"/>
<path opacity="0.5" d="M31.7152 374.185L113.407 294.609L-76.0315 320.748L31.7152 374.185Z" stroke="white" stroke-miterlimit="10"/>
<path opacity="0.2" d="M216.455 838.499L295.164 828.73L191.426 757.273L216.455 838.499Z" fill="white"/>
<path d="M118.39 534.521L58.5748 539.354L45.0011 507.071L118.39 534.521Z" fill="#83CD20"/>
<path opacity="0.3" d="M-61.8802 794.064L137.387 725.099L-32.2673 629.092L-61.8802 794.064Z" fill="#83CD20"/>
<path d="M75.6765 124.492L22.7994 158.721L-24.6158 80.9074L75.6765 124.492Z" fill="#83CD20"/>
<path opacity="0.1" d="M133.715 413.112L215.718 332.789L26.0159 359.562L133.715 413.112Z" fill="white"/>
<path opacity="0.5" d="M-68.8919 733.151L130.391 664.18L-39.2673 568.183L-68.8919 733.151Z" stroke="white" stroke-miterlimit="10"/>
</svg>
