<svg width="870" height="766" viewBox="0 0 870 766" fill="none" xmlns="http://www.w3.org/2000/svg">
<path opacity="0.5" d="M732 788.049L904.52 798.072L831.363 674.391L732 788.049Z" stroke="white" stroke-miterlimit="10"/>
<path opacity="0.5" d="M473.754 858.244L708.152 848.29L542.501 725.519L473.754 858.244Z" stroke="white" stroke-miterlimit="10"/>
<path opacity="0.5" d="M625 734.899L737.504 726.522L723.561 623.529L625 734.899Z" stroke="white" stroke-miterlimit="10"/>
<path opacity="0.5" d="M566.25 581.6L665.718 593.27L659.543 515.41L566.25 581.6Z" stroke="white" stroke-miterlimit="10"/>
<path opacity="0.5" d="M712.773 545.665L679.83 514.145L716.822 524.843L712.773 545.665Z" stroke="white" stroke-miterlimit="10"/>
<path opacity="0.5" d="M856.47 43.5466L829.376 24.9565L877.173 20.7588L856.47 43.5466Z" stroke="white" stroke-miterlimit="10"/>
<path opacity="0.5" d="M757.968 662.019L786.066 638.355L737.31 640.337L757.968 662.019Z" stroke="white" stroke-miterlimit="10"/>
<path opacity="0.5" d="M760.482 607.349L730.635 455.262L817.493 522.111L760.482 607.349Z" stroke="white" stroke-miterlimit="10"/>
<path opacity="0.5" d="M831.856 652.386L808.499 566.337L927.795 552.931L831.856 652.386Z" stroke="white" stroke-miterlimit="10"/>
<path opacity="0.5" d="M817.45 393.588L896.164 383.821L792.426 312.364L817.45 393.588Z" stroke="white" stroke-miterlimit="10"/>
<path opacity="0.5" d="M855.246 514.324L835.896 500.455L872.108 490.216L855.246 514.324Z" stroke="white" stroke-miterlimit="10"/>
<path opacity="0.5" d="M686.952 92.214L745.244 77.5745L716.374 2.36301L686.952 92.214Z" stroke="white" stroke-miterlimit="10"/>
<path opacity="0.5" d="M596.944 742.428L619.876 747.298L596.218 725.09L596.944 742.428Z" stroke="white" stroke-miterlimit="10"/>
<path opacity="0.5" d="M632.56 683.685L581.945 654.236L593.032 620.544L632.56 683.685Z" stroke="white" stroke-miterlimit="10"/>
<path opacity="0.5" d="M368.246 700.657L246.255 650.492L350.228 614.151L368.246 700.657Z" stroke="white" stroke-miterlimit="10"/>
<path opacity="0.5" d="M379 677.769L508.769 563.454L530.652 695.031L379 677.769Z" stroke="white" stroke-miterlimit="10"/>
<path opacity="0.5" d="M736.108 279.151L935.391 210.18L765.733 114.183L736.108 279.151Z" stroke="white" stroke-miterlimit="10"/>
<path opacity="0.5" d="M712.286 190.461L746.393 149.212L661.975 137.511L712.286 190.461Z" stroke="white" stroke-miterlimit="10"/>
<path opacity="0.5" d="M312.548 828.75L137.869 747.085L278.537 701.717L312.548 828.75Z" stroke="white" stroke-miterlimit="10"/>
<path opacity="0.5" d="M122.676 750.492L69.7994 784.72L22.3842 706.907L122.676 750.492Z" stroke="white" stroke-miterlimit="10"/>
<path opacity="0.5" d="M383.249 608.086L401.27 632.547L414.055 588.241L383.249 608.086Z" stroke="white" stroke-miterlimit="10"/>
<path opacity="0.5" d="M665.353 293.787L682.196 282.864L641.84 266.909L665.353 293.787Z" stroke="white" stroke-miterlimit="10"/>
<path opacity="0.5" d="M589.715 430.185L671.407 350.609L481.969 376.748L589.715 430.185Z" stroke="white" stroke-miterlimit="10"/>
<path opacity="0.5" d="M592.837 533.495L599.555 498.21L554.635 507.841L592.837 533.495Z" stroke="white" stroke-miterlimit="10"/>
<path opacity="0.2" d="M732 825.321L904.515 835.355L831.375 711.667L732 825.321Z" fill="white"/>
<path opacity="0.3" d="M653 756.554L765.605 747.934L751.865 644.434L653 756.554Z" fill="#83CD20"/>
<path opacity="0.5" d="M590.129 614.583L689.671 626.074L683.732 547.646L590.129 614.583Z" fill="#034833"/>
<path d="M735.825 578.369L703.988 546.451L740.268 556.827L735.825 578.369Z" fill="white"/>
<path d="M833.467 56.2732L806.376 37.6841L854.173 33.4863L833.467 56.2732Z" fill="white"/>
<path d="M782.14 694.252L809.938 671.34L761.353 672.912L782.14 694.252Z" fill="#83CD20"/>
<path opacity="0.2" d="M783.992 639.353L754.512 488.245L840.627 554.621L783.992 639.353Z" fill="white"/>
<path opacity="0.5" d="M855.72 685.366L832.559 598.876L951.98 585.166L855.72 685.366Z" fill="#034833"/>
<path d="M833.455 414.499L912.164 404.729L808.426 333.272L833.455 414.499Z" fill="#83CD20"/>
<path d="M865.965 546.078L846.627 532.213L882.839 521.974L865.965 546.078Z" fill="#034833"/>
<path opacity="0.2" d="M724.95 417.508L783.352 402.61L754.685 326.91L724.95 417.508Z" fill="white"/>
<path d="M587.947 730.611L610.876 735.48L587.218 713.272L587.947 730.611Z" fill="#034833"/>
<path d="M589.56 684.758L538.87 655.488L549.721 622.364L589.56 684.758Z" fill="#83CD20"/>
<path opacity="0.2" d="M399.988 741.208L277.965 691.119L381.666 655.452L399.988 741.208Z" fill="white"/>
<path opacity="0.1" d="M782.12 281.882L981.387 212.917L811.733 116.91L782.12 281.882Z" fill="white"/>
<path d="M731.286 200.302L765.704 158.305L681.184 146.848L731.286 200.302Z" fill="#83CD20"/>
<path opacity="0.1" d="M395.001 699.994L535.29 575.034L537.639 710.292L395.001 699.994Z" fill="white"/>
<path opacity="0.2" d="M617.025 565.732L623.432 531.195L578.723 540.317L617.025 565.732Z" fill="white"/>
<path opacity="0.5" d="M290.277 862.051L135.935 775.236L271.715 724.095L290.277 862.051Z" fill="#034833"/>
</svg>
